/* XPM */
static char * Untitled_xpm[] = {
"64 64 574 2",
"  	c #D2CBB9",
". 	c #CEA989",
"+ 	c #CF8D4F",
"@ 	c #D2C1A9",
"# 	c #D3CBB9",
"$ 	c #D4CEBF",
"% 	c #DCDAD1",
"& 	c #E1E0DF",
"* 	c #DEDCD6",
"= 	c #D4CDC0",
"- 	c #D3CCBA",
"; 	c #D4CDBB",
"> 	c #D4CDBA",
", 	c #D5CDB9",
"' 	c #CCC5B3",
") 	c #908C7B",
"! 	c #8B8676",
"~ 	c #B9B3A1",
"{ 	c #D4CCBC",
"] 	c #D0AF89",
"^ 	c #CD9E6B",
"/ 	c #D4CBB9",
"( 	c #D9D5CA",
"_ 	c #E0DFDC",
": 	c #DFE0DD",
"< 	c #DAD5CD",
"[ 	c #D2CBB7",
"} 	c #D2C5AC",
"| 	c #D3C6AD",
"1 	c #C9BBA3",
"2 	c #9D815A",
"3 	c #B68B57",
"4 	c #D1C3AB",
"5 	c #D3CBBA",
"6 	c #D3CBB7",
"7 	c #CEA97C",
"8 	c #CEA471",
"9 	c #DBD1C3",
"0 	c #E1E0DE",
"a 	c #DDDBD7",
"b 	c #D3CFC1",
"c 	c #D2CBB8",
"d 	c #D2CBBA",
"e 	c #D2CCB9",
"f 	c #D5CDB8",
"g 	c #D1BFA3",
"h 	c #D1BA9B",
"i 	c #BD9D73",
"j 	c #C49259",
"k 	c #CEAD83",
"l 	c #D5CDBB",
"m 	c #D4CDBC",
"n 	c #D2BA9A",
"o 	c #D0C5AC",
"p 	c #D1B38F",
"q 	c #E0D7CE",
"r 	c #D6B99D",
"s 	c #D7D3C6",
"t 	c #D3CABA",
"u 	c #C4B297",
"v 	c #B99D77",
"w 	c #D3BA9D",
"x 	c #D2B28C",
"y 	c #D2C1A4",
"z 	c #D4CBBB",
"A 	c #D5CEBC",
"B 	c #D6C4AD",
"C 	c #D8D3C8",
"D 	c #D0C0A5",
"E 	c #D3C9B4",
"F 	c #D4CBB8",
"G 	c #CF9C7F",
"H 	c #CC683A",
"I 	c #D1AF96",
"J 	c #D4CEBB",
"K 	c #D5CDBA",
"L 	c #D1A47B",
"M 	c #CE7F42",
"N 	c #D2B897",
"O 	c #D5CDBC",
"P 	c #D3B592",
"Q 	c #CF914E",
"R 	c #D4C4AA",
"S 	c #D5CCBC",
"T 	c #D5C7AD",
"U 	c #D0A271",
"V 	c #D3CDBB",
"W 	c #D3CDBC",
"X 	c #DAD2C4",
"Y 	c #DAD0C3",
"Z 	c #DAD6CB",
"` 	c #D9D3C6",
" .	c #D7D0C2",
"..	c #D6CEBE",
"+.	c #D4C1A7",
"@.	c #D0AD82",
"#.	c #D4CEBD",
"$.	c #D4BFAA",
"%.	c #D1B49E",
"&.	c #D7CFC0",
"*.	c #D9D3C7",
"=.	c #DBD6CC",
"-.	c #DDD9D1",
";.	c #DEDAD3",
">.	c #DFDBD3",
",.	c #DEDBD3",
"'.	c #DDDAD2",
").	c #DCD8CE",
"!.	c #D6C6AD",
"~.	c #D5BF9F",
"{.	c #D6D0BF",
"].	c #D4CEBC",
"^.	c #D5CEBD",
"/.	c #D6CFC0",
"(.	c #D8D0C4",
"_.	c #D8D1C6",
":.	c #D9CFC0",
"<.	c #D8D3C4",
"[.	c #D5CFBE",
"}.	c #D3CDBD",
"|.	c #CCC5B2",
"1.	c #959283",
"2.	c #B1AB9A",
"3.	c #D2CAB9",
"4.	c #D4CCB9",
"5.	c #D2CAB8",
"6.	c #BFA47D",
"7.	c #8E7D64",
"8.	c #A8957B",
"9.	c #D5CCB8",
"0.	c #D3C6B0",
"a.	c #D6CAB6",
"b.	c #D6CFBD",
"c.	c #D3CCBB",
"d.	c #D0B490",
"e.	c #DCC8B8",
"f.	c #DDCEC9",
"g.	c #D2B698",
"h.	c #D0B18A",
"i.	c #D3C0A6",
"j.	c #D5CCBB",
"k.	c #D5CDBD",
"l.	c #D3CCB9",
"m.	c #D1C5AE",
"n.	c #D3B693",
"o.	c #D3B798",
"p.	c #DECCBF",
"q.	c #E0D3CD",
"r.	c #D4CDB9",
"s.	c #D4CCB8",
"t.	c #D3BFAA",
"u.	c #C76441",
"v.	c #CA6F51",
"w.	c #D5C1AF",
"x.	c #D4CCBA",
"y.	c #CD7E41",
"z.	c #CD7E43",
"A.	c #D4C4AC",
"B.	c #D5CCBA",
"C.	c #D2CCBA",
"D.	c #CDC5B3",
"E.	c #CDC7B4",
"F.	c #D4CCBB",
"G.	c #D4C8B1",
"H.	c #CF9758",
"I.	c #CD9757",
"J.	c #D5C9B3",
"K.	c #C8C0AD",
"L.	c #867354",
"M.	c #D2C8B4",
"N.	c #D0A97B",
"O.	c #D0A671",
"P.	c #D6C7B0",
"Q.	c #D6CDBB",
"R.	c #D7D0C3",
"S.	c #D5CCB9",
"T.	c #BCBDB0",
"U.	c #AFA088",
"V.	c #BCBFB4",
"W.	c #D7C7B1",
"X.	c #D6C4B0",
"Y.	c #D2CDB9",
"Z.	c #D2B695",
"`.	c #D3B389",
" +	c #D2B795",
".+	c #D5CDBE",
"++	c #D7D2C5",
"@+	c #DCD7CC",
"#+	c #DED9CF",
"$+	c #DBD5C9",
"%+	c #D6B99F",
"&+	c #D5CBBA",
"*+	c #D1C7B2",
"=+	c #D3CDB8",
"-+	c #A4B0AD",
";+	c #87A2A9",
">+	c #A8B1AD",
",+	c #D1B19C",
"'+	c #CC8368",
")+	c #C65F3A",
"!+	c #CC947A",
"~+	c #D4CDB8",
"{+	c #D4C8B2",
"]+	c #D3C0A7",
"^+	c #D6C3AB",
"/+	c #DDD9CE",
"(+	c #DFD9D2",
"_+	c #DDD9D0",
":+	c #D9D5C9",
"<+	c #D6D0C1",
"[+	c #D6C9B3",
"}+	c #D6CFBC",
"|+	c #D4C9B3",
"1+	c #CDBAA0",
"2+	c #D4C5B1",
"3+	c #D5D1C2",
"4+	c #C7CBCA",
"5+	c #AEAEAD",
"6+	c #B3836F",
"7+	c #C8572E",
"8+	c #C85A33",
"9+	c #CE987E",
"0+	c #D6C9B7",
"a+	c #D5D0C0",
"b+	c #DBD6CB",
"c+	c #DDD7CD",
"d+	c #DDD8CF",
"e+	c #DAD3C7",
"f+	c #DAD3C6",
"g+	c #D6CFBF",
"h+	c #D6CDBA",
"i+	c #D5CFBD",
"j+	c #D4C6B0",
"k+	c #D1C0A9",
"l+	c #C8A17C",
"m+	c #CDA381",
"n+	c #D0A980",
"o+	c #D4937E",
"p+	c #CC6736",
"q+	c #CC8163",
"r+	c #D4BAA6",
"s+	c #D5CBBB",
"t+	c #D2CCB8",
"u+	c #D3CDBA",
"v+	c #D1CDBA",
"w+	c #B3B8AE",
"x+	c #CECABA",
"y+	c #D7CCB8",
"z+	c #D3B69E",
"A+	c #C48247",
"B+	c #CD8745",
"C+	c #CC723C",
"D+	c #CB7D61",
"E+	c #D2B29A",
"F+	c #D5CBB9",
"G+	c #D5CEBB",
"H+	c #A3B0AB",
"I+	c #6F919A",
"J+	c #B2B7AD",
"K+	c #D5CFBC",
"L+	c #D8CEBB",
"M+	c #D4B59E",
"N+	c #D4C4B2",
"O+	c #CE9273",
"P+	c #CB6E3B",
"Q+	c #CA6A3B",
"R+	c #CC8365",
"S+	c #D3B49F",
"T+	c #B8B7A8",
"U+	c #749299",
"V+	c #709097",
"W+	c #B4B9AE",
"X+	c #D7C4AF",
"Y+	c #CF886D",
"Z+	c #CE6A37",
"`+	c #D4C0AB",
" @	c #C86D4D",
".@	c #CA613C",
"+@	c #CD9378",
"@@	c #D5BAA4",
"#@	c #9A8B72",
"$@	c #627E80",
"%@	c #709099",
"&@	c #C3C3B6",
"*@	c #D5D0BB",
"=@	c #D9C8B6",
"-@	c #C77151",
";@	c #CA6742",
">@	c #D3A48B",
",@	c #D4C6B3",
"'@	c #D3B59F",
")@	c #CEA890",
"!@	c #D7CCB5",
"~@	c #C09B6E",
"{@	c #9C9584",
"]@	c #80989B",
"^@	c #D1CDBD",
"/@	c #DAC9B5",
"(@	c #D6B7A0",
"_@	c #D8CFBC",
":@	c #D6CBB5",
"<@	c #D5B490",
"[@	c #D09E69",
"}@	c #D8B38C",
"|@	c #AFAB9A",
"1@	c #D6CEBB",
"2@	c #D7CFBD",
"3@	c #D5C6B0",
"4@	c #D5BEA3",
"5@	c #E2D3C8",
"6@	c #D0BA9C",
"7@	c #D3D0C8",
"8@	c #E4E3E2",
"9@	c #D4CCC3",
"0@	c #D3BFA1",
"a@	c #C6C5B5",
"b@	c #94A09C",
"c@	c #BAB9AE",
"d@	c #B6B8AD",
"e@	c #D5C6AA",
"f@	c #B5BAB2",
"g@	c #719098",
"h@	c #7B9293",
"i@	c #C7C7B8",
"j@	c #D7CEBB",
"k@	c #D2CAB7",
"l@	c #9B9584",
"m@	c #CFCBB8",
"n@	c #A4AFAB",
"o@	c #98A8A5",
"p@	c #D2CCBB",
"q@	c #D3C1A6",
"r@	c #CEA474",
"s@	c #CAAF8D",
"t@	c #B29065",
"u@	c #CDC2B0",
"v@	c #99A7A5",
"w@	c #74949B",
"x@	c #C7C5B7",
"y@	c #D4CBBA",
"z@	c #BAAB95",
"A@	c #A6906E",
"B@	c #C9AB86",
"C@	c #D5CBB4",
"D@	c #D4C9B6",
"E@	c #D3CBB8",
"F@	c #B5B9AF",
"G@	c #B7BAB0",
"H@	c #D7D0BE",
"I@	c #93A3A3",
"J@	c #8B9A98",
"K@	c #D1BFA5",
"L@	c #CEB18C",
"M@	c #D3BFA5",
"N@	c #D3CCB6",
"O@	c #CAC4B2",
"P@	c #869088",
"Q@	c #A1A99F",
"R@	c #D6CBB9",
"S@	c #D7C6AE",
"T@	c #C9955A",
"U@	c #C99B66",
"V@	c #D2B896",
"W@	c #CC9659",
"X@	c #D4CBB7",
"Y@	c #D4BEA1",
"Z@	c #CD9A62",
"`@	c #D2BA9B",
" #	c #D1B290",
".#	c #C4BFAD",
"+#	c #D5CEBE",
"@#	c #DAD2C5",
"##	c #DBD3C5",
"$#	c #D9D4C7",
"%#	c #D9D4C6",
"&#	c #DAD2C6",
"*#	c #D8C7B5",
"=#	c #D7C7AF",
"-#	c #D8CFC1",
";#	c #B0A089",
">#	c #90836C",
",#	c #CDC6B4",
"'#	c #D8D1C0",
")#	c #DDD6C7",
"!#	c #D2C0AB",
"~#	c #D6D0C3",
"{#	c #D6D1C3",
"]#	c #D6D0C2",
"^#	c #D5CEBF",
"/#	c #D6CCBA",
"(#	c #D2A486",
"_#	c #CF8863",
":#	c #D0A18A",
"<#	c #D6C9B5",
"[#	c #D3CEBB",
"}#	c #D6CDB9",
"|#	c #D3CCB8",
"1#	c #D0A791",
"2#	c #D7AD9E",
"3#	c #DDC5B9",
"4#	c #D4B19D",
"5#	c #CE9D85",
"6#	c #D2B49D",
"7#	c #D1B79F",
"8#	c #D3B29C",
"9#	c #D0D0C8",
"0#	c #CDD1D1",
"a#	c #D5C9B4",
"b#	c #D5CAB6",
"c#	c #D3C6B1",
"d#	c #D8C4AC",
"e#	c #DABBA1",
"f#	c #D4CDBD",
"g#	c #D1B590",
"h#	c #CF8F49",
"i#	c #D3BC9F",
"j#	c #D4C2A5",
"k#	c #CE9250",
"l#	c #D5C7B0",
"m#	c #D5C5AC",
"n#	c #CD985D",
"o#	c #D5CCB7",
"p#	c #D7CCBA",
"q#	c #D7CBB7",
"r#	c #D8C9B4",
"s#	c #D5C4B0",
"t#	c #D4BFAB",
"u#	c #D4B8A3",
"v#	c #D3B29A",
"w#	c #D3AF99",
"x#	c #D5C9B6",
"y#	c #D1CAB8",
"z#	c #D4C3A8",
"A#	c #CE935F",
"B#	c #CD9075",
"C#	c #CC8569",
"D#	c #CB7A5D",
"E#	c #CA7151",
"F#	c #C76B47",
"G#	c #C76B48",
"H#	c #CB7251",
"I#	c #CD7D5F",
"J#	c #CC886D",
"K#	c #CF947C",
"L#	c #D5AF9C",
"M#	c #D6CAB7",
"N#	c #D1CBB9",
"O#	c #CFC7B7",
"P#	c #D0C9B8",
"Q#	c #D3CAB7",
"R#	c #D3CAB6",
"S#	c #D5C5B0",
"T#	c #CEAA91",
"U#	c #D2B097",
"V#	c #D3B9A0",
"W#	c #D5C1AC",
"X#	c #D7C7B3",
"Y#	c #D8CBB8",
"Z#	c #D0C9B7",
"`#	c #BDB7A5",
" $	c #75664C",
".$	c #B7AA95",
"+$	c #D5C7B2",
"@$	c #D0B695",
"#$	c #D2C9B4",
"$$	c #D6CBBB",
"%$	c #D3C7B0",
"&$	c #CFB695",
"*$	c #B1875A",
"=$	c #BF8244",
"-$	c #CC9158",
";$	c #CEB087",
">$	c #D3C5B1",
",$	c #CFC8B6",
"'$	c #D1CAB7",
")$	c #D1CAB6",
"!$	c #CFC1A6",
"~$	c #D2C8B2",
"{$	c #D3C0A8",
"]$	c #CA7145",
"^$	c #CA8F6D",
"/$	c #D3CAB8",
"($	c #D5D1C3",
"_$	c #DBD7CE",
":$	c #CFC8B5",
"<$	c #D1C9B7",
"[$	c #D1C9B8",
"}$	c #D2C9B7",
"|$	c #CD8567",
"1$	c #CB7A5B",
"2$	c #D0CAB8",
"3$	c #D4CEC0",
"4$	c #DFDEDD",
"5$	c #D2BCAC",
"6$	c #D3C7B3",
"7$	c #CFC8B4",
"8$	c #CA9069",
"9$	c #C88951",
"0$	c #D2CCBC",
"a$	c #DAD7CE",
"b$	c #E0DEDD",
"c$	c #DDDBD6",
"d$	c #D4CCBE",
"e$	c #D1CBB8",
"f$	c #ADA897",
"g$	c #838172",
"h$	c #9C9682",
"i$	c #D0C9B6",
"j$	c #CDA274",
"k$	c #CFAA7F",
"l$	c #D7D1C7",
"m$	c #DEDDD8",
"n$	c #E1DEDC",
"o$	c #D9D4CB",
"p$	c #D0CAB7",
"q$	c #D1CAB9",
"r$	c #D4CAB5",
"s$	c #D2C1A5",
"t$	c #D7C9B0",
"u$	c #AD9574",
"v$	c #A98250",
"w$	c #CBB28D",
"x$	c #D0C8B5",
"y$	c #CEC7B4",
"z$	c #D0C8B3",
"A$	c #CDA476",
"B$	c #DCD6CE",
"C$	c #E0DDDC",
"D$	c #DDDAD5",
"E$	c #D3CCBF",
"F$	c #D1C9B6",
"G$	c #D6C8B0",
"H$	c #CFBB9E",
"I$	c #CAB18E",
"J$	c #BD9260",
"K$	c #C79A6A",
"L$	c #D3CEBD",
"M$	c #CFBFA4",
"N$	c #CFC5AF",
"O$	c #D0C7B2",
"P$	c #D0B18D",
"Q$	c #D6C2AD",
"R$	c #D9C7B4",
"S$	c #D7D1C8",
"T$	c #CFC9B7",
"U$	c #D0C9B5",
"V$	c #D0C8B2",
"W$	c #BD9C73",
"X$	c #CAB296",
"Y$	c #D2B38F",
"Z$	c #D5C0A0",
"`$	c #D3C9B3",
" %	c #D1C4AA",
".%	c #CFC6B0",
"+%	c #D0C6B0",
"@%	c #CEB697",
"#%	c #D1C8B4",
"$%	c #D0C8B6",
"%%	c #D0C8B7",
"&%	c #C9693C",
"*%	c #CC815E",
"=%	c #CEC8B5",
"-%	c #D1C7B3",
";%	c #D0C7B3",
">%	c #D5C2A7",
",%	c #CE8546",
"'%	c #D09A65",
")%	c #CEC7B3",
"!%	c #CEC8B2",
"~%	c #D0C8B4",
"{%	c #CFC7B6",
"]%	c #D3CDB9",
"^%	c #CF975A",
"/%	c #D1B087",
"                                  . + @ # $ % & * =                   - - -   - - - - - ; ; ; - ; > ; > , ' ) ! ~ ; ; ; ; { { { ",
"                                  ] ^ / ( _ : <   [             -   - - - - - - - - - - ; ; ; ; ; > > } | 1 2 3 4 ; ; ; ; { { { ",
"5 6                               7 8 9 0 a b c d e               - - - - - - - - - - - ; ; ; ; ; ; ; f g h i j k > l m { ; m m ",
"n o 5                   -     -   p q r s t 5 -     -             - - - - - - - - - - - ; ; ; ; ; ; ; ; > > u v w x y z { ; ; A ",
"5 6                   -   -     c B C D E F       -     - - - - - - - - - - - - - - - ; ; ; ; ; ; ; ; ; ; ; G H I J K { { ; A A ",
"                                        -         -     - - - - - - - - - - - - ; - ; ; ; ; ; ; ; ; ; ; ; ; L M N ; ; { { O A A ",
"                  - -         -   -   -   - -     - - - - - - - - - - - - - - - - - ; ; ; ; ; ; ; ; ; ; ; ; P Q R ; ; { { O A A ",
"-   - -       - - - -     -   - -             - - - - - - - - - - - - - - ; - ; ; ; S > > ; S m > > ; l l ; T U ; V V m W A A A ",
"        - - - - -     - - - - - - - - -       - - - - - - - - - - - - - - ; ; ; ; ; K X Y Z `  ...O O l ; ; +.@.; V V W #.A A A ",
"    - - - - - - -     - - -   - - - - - - - - - - - - - - - - - - - - - ; ; ; ; ; ; > $.%.&.*.=.-.;.>.,.'.).!.~.{.].; W #.].A A ",
"- -     - - - - - - - - - - - - - - - - - - - - - - - - - - - - - - ; ; ; ; ; ; - ; ; ; ; ; ; ; ; > m ^./.(._.:.<.[.].A A A A A ",
"- -       - - - - - - - - - - - - - - - - - - - - - - - - - - - ; - - ; ; ; ; ; ; ; ; ; ; ; ; ; ; S S ; ; ; l }.K m J A A A A A ",
"- - - -   - - - - - - - - - - - - - - - - - - - - - - - - > ; - ; - - ; ; ; ; ; ; ; ; ; ; ; ; ; ; ; ; ; ; ; ; J ].].].A A A A A ",
"- - - - - - - - - - - - - - - - - - - - - - - - - - - |.1.2.3.- ; ; ; ; ; ; ; ; ; ; ; ; ; ; ; ; ; ; ; ; ; ; ; A ].].].A A A A A ",
"  - - - - - - - - - - - - - - - - - - - - - - - - - 4.5.6.7.8.9.0.a.V ; ; ; ; ; ; ; ; ; ; ; ; ; ; ; ; ; ; ; ; m m ].].A A b.A A ",
"- - - - - - - - - - - - - - - - - - - - - - - - c.4.4.d.e.f.g.h.i.- j.; ; ; ; ; ; ; ; ; ; ; ; ; ; ; ; ; ; ; { k.A A A A A A A A ",
"- - - - - - - - - - - - - - - - - - - - - - - - l.m.n.o.p.q.O ; r.> r.; ; ; ; ; ; ; ; ; ; ; ; ; ; ; ; ; ; A k.k.A A A A A A A A ",
"- - - - - - - - - - - - - - - - - - - - - - - - - s.> t.u.v.w.> ; x.; ; ; ; ; ; ; ; ; ; ; ; ; ; ; ; ; ; ; ; A A A A A A A A b.b.",
"- - - - - - - - - - - - - - - - - - - - - - - - - ; ; w y.z.A.B.; ; ; ; ; ; ; ; ; ; ; ; ; ; ; ; ; ; ; ; A A A A A A A A A A b.b.",
"- - - - - - - - C.D.E.c.- l.F.- - - - - - - ; - - ; ; G.H.I.J.> > ; ; ; ; ; l ; ; ; ; ; ; ; ; { { ; A A A A ; A A A A A A A b.b.",
"- - - - - - - 5 s.K.L.M.- C.- 4.x.- - - - - ; ; - ; ; F.N.O.P.> > ; > ; ; Q.R.^.; ; ; ; ; ; ; { { ; A A A A A A A A A A A b.b.b.",
"- - - - - - - x.S.T.U.V.5 4.W.X.Y.- - - - - - ; ; ; l > Z.`. +j.> .+++@+#+$+%+m ; ; ; ; ; ; ; { { ; A A A ; A A A A A A b.b.b.b.",
"; - - - - &+*+=+4.-+;+>+,+'+)+!+x.- - - - - - - x.B.K ~+{+]+^+/+(+_+:+<+; K [+S.; ; ; ; ; ; ; ; ; A A A A A A A A A A A b.}+[.|+",
"- - - - - S.1+2+3+4+5+6+7+8+9+0+=+x.- - - - - - - a+b+c+d+e+f+g+; K h+> ; > m ; ; ; ; ; ; ; ; ; ; A A A A A A A A A A A b.i+b.j+",
"- - - x.=+&+k+l+m+n+o+p+q+r+s+t+c.- - - - - - - F.; u+W > ; x.; S ; ; ; ; ; l ; ; ; ; ; ; ; m K V v+w+x+A A A A A A A b.b.}+i+y+",
"- - x.x.c.4.z+A+B+C+D+E+F+F+e - - - - - - - - ; ; ; ; ; ; ; - ; ; ; ; ; ; ; ; ; ; ; ; ; ; ; ; ].G+H+I+J+A A A A A A A b.b.K+L+M+",
"- - - C.N+O+P+Q+R+S+F+l.l.l.z - - - - ; - - - ; ; - ; - ; ; ; ; ; ; ; ; ; ; ; ; ; ; ; ; ; ; l l T+U+V+W+A A A A A A b.b.b.X+Y+Z+",
"- ; x.`+ @.@+@@@4.- - - - - - - - - - - - - - ; ; ; ; ; ; ; ; ; ; ; ; ; ; ; ; ; ; ; ; ; ; ; m k.#@$@%@&@A A A A A A b.*@=@-@;@>@",
"; - r.,@'@)@x.c.B.e - - - - - - - - - - - - - ; ; ; ; ; ; ; ; ; ; ; ; ; ; ; ; ; ; ; ; ; ; ; m !@~@{@]@^@A A A A A A b.b.L+/@(@_@",
"; F.> > x.{ l.- l.4.- - - - - - - - - - - ; - ; ; - ; ; ; ; ; ; ; ; ; ; ; ; ; ; ; ; ; ; ; ; :@<@[@}@|@1@A A A A A A b.b.}+2@b.i+",
"; ; ; ; - - - - - - - - - - - - - - - - - - - ; ; ; ; ; ; ; ; ; ; ; ; ; ; ; ; ; ; ; ; ; ; ; 3@4@5@2+6@].A A b.A A b.b.b.b.b.b.b.",
"; ; ; - - ; - - - - - - - - - - - - - - - - ; ; ; ; ; - ; ; ; ; ; ; ; ; ; ; ; ; ; ; ; ; ; ; u+7@8@9@0@G+A A A A A b.b.b.b.b.b.b.",
"; ; - ; ; ; - - - - - - - - - - - - - - - - - - - - - ; ; ; ; ; ; ; ; ; ; ; ; ; ; ; ; ; ; ; a@b@c@d@e@A A A A A b.b.b.b.b.b.b.b.",
"; - - ; ; - - - - - - - - - - - - - - - - ; - - ; ; ; ; ; ; ; ; ; ; ; ; ; ; ; ; ; ; ; ; W ; f@g@h@i@j@#.A A A A A b.b.b.b.b.b.b.",
"; ; ; ; ; - - - - - - - - - 4.c.4.4.k@l@m@x.- - ; ; ; ; ; ; ; ; ; ; ; ; ; ; ; ; ; ; ; ; ; m n@V+o@A A A A A A A b.b.b.b.b.b.b.b.",
"; ; ; ; ; - - - - - - - - - p@s.q@r@s@t@u@l.- - ; ; ; ; - ; ; ; ; ; ; ; ; ; ; ; ; ; ; ; m l v@w@x@A A A A A A A b.b.b.b.b.b.b.b.",
"; ; ; ; - - - - - - - - - - - l.y@z@A@B@C@D@E@- c.; - ; ; ; ; ; ; ; ; ; ; ; ; ; ; ; ; ; K m F@G@G+].A A A A A A A b.b.b.b.b.b.H@",
"; ; ; ; ; - - - - - - - - - s.p@/ I@J@K@L@M@N@- - - - - ; ; ; ; ; ; ; ; ; ; ; ; ; ; ; ; ; ; ; ; A A A A A A A A b.b.b.b.b.b.b.H@",
"; ; - - - - - - - - - - - - - 4.O@P@Q@l.R@4.c.l.x.- - - ; - ; ; ; ; ; ; ; ; ; ; ; ; ; ; ; ; ; A A A A A A A A A A A b.b.b.b.b.b.",
"; ; - ; - - - - - - - - - - l.- S@T@U@/ - c.- - - - ; - ; ; ; ; ; ; ; ; ; ; ; ; ; ; ; ; ; ; ; ; ; A A A A A A A A b.b.b.b.b.b.b.",
"; ; - - - - - - - - - - - - 4.p@- V@W@X@- - - - - - ; ; ; ; ; ; ; ; ; ; ; ; ; ; ; ; ; ; ; ; ; ; ; A A A A A A A A b.b.b.b.b.b.H@",
"- - - - - - - - - - - - - x.x.4.4.Y@Z@X@- - - - - - - - ; ; ; ; ; ; ; ; ; ; ; O l ; ; ; ; ; ; ; A A A A A A A A A A b.b.b.b.b.H@",
"- - - - - - - - l.- x.x.- - - - - `@ #C.- - - - - - - - - - ; ; ; ; ; ; ; K 4..#V ; ; ; ; ; ; ; A A A A A A A A A A b.b.b.b.b.[.",
"- - - - - +#@###C e+$#%#e+e+e+f+&#*#=#-#- - - - - - - - ; - - ; ; ; ; ; > W ;#>#,#; ; ; ; ; ; ; ; A A A A A A A A A A b.b.b.'#)#",
"- - - - - p@/ !#a+<+~#{#{#{#{#{#]#a+^#V - - - - - - - - - - - ; ; - ; ; V /#(#_#:#<#; [#; ; ; ; ; A A A A A A A A A b.b.b.b.b.}#",
"- - - - - - E@|#&+- - - - - - - - - - - - - - - - - - - - - - - - ; ; ; > 1#2#3#4#5#6#s.> ; ; ; ; ; A A A A A A A A A b.b.b.b.2@",
"- - - - - - - l.l.- - - - - - - - - - - - - - - - - - - - - - - - ; ; x.7#8#9#0#a+V a#b#; ; ; ; ; ; ; A A A A A A A A b.b.b.b.b.",
"- - - - - - - - - - - - -     - - - - - - - - - - - - - - - - - ; ; ; 4.c#, d#e#i.l ; ; ; ; ; ; ; ; ; ; A A A A A A A A b.b.b.b.",
"            -   -       -         -       - - - - - - - - - - - - - - 4./#f#g#h#i#l ; ; ; ; ; ; ; ; ; ; A A A A A A A A b.b.b.b.",
"                                          -   - - - - - - - - - - - - - u+> j#k#l#l > V K ; V > j.; O > ; A A A A A A A b.b.b.b.",
"                                                -   - - - - - - - - - - - > m#n#o#> j.p#q#r#s#t#u#v#w#x#; ; A A A A A A A b.b.b.",
"  y#y#                          #     d #             - - - - - - - - - x.x.z#A#B#C#D#E#F#G#H#I#J#K#L#M#; ; A A A A A A A A b.b.",
"y#y#y#y#y#y#y#y#y#      y#  N#y#  O#P#6 Q#R#              - - - - - - - - s.S#T#1#U#V#W#X#Y#/#> ; m g+m ; ; A A A A A A A A b.b.",
"Z#y#Z#y#y#y#y#y#y#y#y#y#y#  5.5.`# $.$+$@$#$                    - - - - - F.&+j.F.$$S ; j.; ; K l l > K ; ; ; A A A A A A A b.b.",
"Z#Z#Z#Z#Z#Z#y#y#y#y#y#y#y#k@%$&$*$=$-$;$>$[         #           - - - - - - - - - - ; - ; ; ; ; ; ; ; ; ; ; ; ; ; ; A A A A A b.",
",$,$Z#Z#Z#Z#Z#Z#Z#Z#Z#y#'$)$!$~${$]$^$/$5.3.y#y#3.($_$d                   - - - - - - - ; ; ; ; ; ; ; ; ; ; ; ; ; ; A A A A A A ",
",$,$,$:$,$Z#Z#Z#Z#Z#Z#Z#y#<$[$'$}$|$1$M.2$5.y#3$;.4$5$6$                  - - - - - - - ; ; ; ; ; ; ; > m ; l l O ; A A A A A A ",
"7$7$7$7$7$,$,$Z#Z#Z#Z#Z#Z#Z#Z#Z#k@8$9$s#'$0$a$b$c$d$)$k@e$E@                - - - - - - ; ; ; - ; j.m ; }#f$g$h$- ; A ; A A A A ",
"7$7$7$7$:$,$,$,$,$,$,$Z#,$Z#Z#Z#i$j$k$2$l$m$n$o$'$p$k@y#y#q$                      - - - - - - ; ; ; r$s$t$u$v$w$h+; ; ; A A A A ",
"x$x$7$7$7$7$7$y$7$7$7$7$,$,$,$7$z$^ A$B$C$D$E$F$[$Z#y#y#y#y#y#y#y#                  - - - - - - > ; ; G$H$I$J$K$R L$> ; A A A A ",
"M$N$7$7$7$7$7$7$7$7$7$7$,$,$:$7$O$P$Q$R$S$T$U$i$Z#Z#y#y#y#y#y#y#y#y#                  - - - - - - F.W W /#V$W$X$Y$Z$`$; ; A A A ",
" %.%7$7$7$7$7$7$7$7$7$7$:$:$:$:$+%X.++@%#%$%%%Z#Z#Z#Z#y#Z#y#y#y#y#y#y#y#y#              - - - - - - x.4.> `+&%*%r.; K ; ; ; A A ",
"7$7$7$7$7$7$7$7$7$7$7$7$7$7$:$=%*+-%7$;%x$#%,$,$Z#Z#Z#Z#Z#Z#Z#y#y#y#y#y#y#                - - - - - ; u+S >%,%'%> ; ; ; ; ; A A ",
")%)%7$7$7$7$7$7$7$7$7$)%7$)%y$!%y$~%{%x$x$:$:$,$Z#i$Z#Z#Z#Z#Z#Z#y#Z#y#y#y#y#y#y#    # E@  5 l.x.x.- ; F.]%b#^%/%m ; ; ; ; ; ; A "};
